<?xml version="1.0" standalone="no"?>
<!DOCTYPE svg PUBLIC "-//W3C//DTD SVG 20010904//EN"
 "http://www.w3.org/TR/2001/REC-SVG-20010904/DTD/svg10.dtd">
<svg version="1.0" xmlns="http://www.w3.org/2000/svg"
 width="128.000000pt" height="128.000000pt" viewBox="0 0 128.000000 128.000000"
 preserveAspectRatio="xMidYMid meet">
<metadata>
Created by potrace 1.14, written by Peter Selinger 2001-2017
</metadata>
<g transform="translate(0.000000,128.000000) scale(0.100000,-0.100000)"
fill="#000000" stroke="none">
<path d="M465 1134 c-61 -15 -162 -65 -223 -112 -19 -14 -46 -28 -60 -30 -76
-10 -135 -77 -137 -155 -1 -29 -9 -77 -18 -107 -26 -90 -29 -140 -14 -216 22
-103 59 -168 146 -255 83 -83 142 -119 195 -119 42 0 68 29 122 130 31 60 41
71 73 80 42 11 66 27 141 91 67 58 110 128 145 234 29 87 39 109 65 141 l16
22 55 -34 c110 -70 163 -65 227 19 57 77 75 117 76 168 0 54 -21 91 -67 119
-70 43 -171 34 -294 -26 l-66 -32 -68 34 c-70 35 -173 64 -224 63 -16 0 -57
-7 -90 -15z m230 -85 c38 -11 86 -32 107 -47 l39 -25 -28 -23 c-15 -12 -31
-20 -35 -18 -4 3 -17 -1 -28 -8 -19 -11 -24 -10 -40 10 -10 12 -29 22 -43 22
-13 0 -30 7 -37 15 -9 11 -16 13 -24 5 -15 -15 -46 -12 -52 5 -4 10 -14 13
-29 9 -13 -3 -29 -3 -35 1 -17 10 -100 12 -106 3 -7 -11 -42 -10 -49 2 -4 6
22 24 57 40 55 26 74 30 149 30 60 0 108 -7 154 -21z m-281 -96 c4 -4 22 -9
39 -10 56 -3 107 -15 107 -24 0 -5 13 -9 29 -9 16 0 36 -7 45 -15 8 -8 24 -15
36 -15 38 0 34 -28 -12 -82 -25 -29 -66 -83 -92 -120 -47 -67 -48 -67 -72 -52
-13 9 -24 20 -24 25 0 5 -7 9 -15 9 -22 0 -96 41 -102 56 -3 8 -13 14 -23 14
-9 0 -25 9 -35 20 -10 11 -23 20 -29 20 -6 0 -27 16 -46 36 -29 29 -33 37 -22
52 7 9 19 31 27 48 12 27 22 33 60 38 25 4 49 5 54 1 5 -3 12 -1 16 5 7 12 48
14 59 3z m-215 -175 c9 -10 27 -31 41 -48 22 -27 42 -47 113 -116 12 -12 32
-26 45 -33 12 -6 22 -17 22 -24 0 -20 38 -48 44 -34 3 7 3 -10 0 -38 -7 -54
-69 -252 -86 -272 -17 -21 -48 -15 -99 17 -112 72 -200 210 -205 319 -2 31 0
45 3 32 2 -14 12 -35 20 -48 8 -13 11 -23 7 -23 -5 0 2 -6 16 -13 17 -8 25
-21 25 -37 0 -14 8 -31 18 -38 9 -7 17 -18 17 -24 0 -11 10 -23 58 -72 12 -13
22 -28 22 -35 0 -6 8 -11 18 -11 23 0 42 -19 42 -42 0 -19 26 -36 37 -25 12
13 21 92 12 109 -5 10 -20 18 -34 18 -15 0 -26 7 -30 19 -3 11 -15 23 -26 26
-10 4 -19 10 -19 14 0 9 -67 88 -102 120 -16 14 -28 35 -28 48 0 12 -4 25 -10
28 -5 3 -10 19 -10 35 0 16 -5 40 -11 54 -17 36 -3 75 39 113 32 29 38 32 41
16 2 -10 11 -26 20 -35z"/>
</g>
</svg>
